<?xml version="1.0" standalone="no"?>
<!DOCTYPE svg PUBLIC "-//W3C//DTD SVG 20010904//EN"
 "http://www.w3.org/TR/2001/REC-SVG-20010904/DTD/svg10.dtd">
<svg version="1.0" xmlns="http://www.w3.org/2000/svg"
 width="150.000000pt" height="150.000000pt" viewBox="0 0 150.000000 150.000000"
 preserveAspectRatio="xMidYMid meet">

<g transform="translate(0.000000,150.000000) scale(0.100000,-0.100000)"
fill="#000000" stroke="none">
<path d="M785 1036 c-15 -12 -17 -16 -5 -17 20 -2 22 -2 41 6 13 5 18 -2 24
-31 12 -64 31 -84 82 -84 l44 0 -3 -62 -3 -63 -37 -3 c-56 -5 -46 -24 10 -20
l47 3 6 70 c3 39 1 76 -4 83 -5 6 -29 12 -52 12 -51 0 -63 12 -67 70 -3 42 -5
45 -33 48 -16 2 -39 -4 -50 -12z"/>
<path d="M760 1006 c0 -2 7 -7 16 -10 8 -3 12 -2 9 4 -6 10 -25 14 -25 6z"/>
<path d="M713 985 c-3 -9 -3 -18 -1 -21 3 -3 8 4 11 16 6 23 -1 27 -10 5z"/>
<path d="M755 970 c-3 -6 1 -7 9 -4 18 7 21 14 7 14 -6 0 -13 -4 -16 -10z"/>
<path d="M768 943 c6 -2 10 -9 6 -14 -3 -5 0 -9 6 -9 6 0 8 -4 5 -10 -3 -5 -2
-17 3 -26 6 -11 11 -13 16 -5 4 6 3 11 -2 11 -6 0 -10 6 -9 13 1 34 -5 47 -20
46 -11 0 -13 -3 -5 -6z"/>
<path d="M581 916 c-7 -9 -11 -41 -9 -83 l3 -68 50 -3 c63 -4 75 -15 75 -67 0
-56 18 -72 60 -55 30 12 37 39 9 31 -37 -10 -44 -5 -47 28 -6 58 -28 81 -78
81 l-44 0 0 65 0 65 40 0 c22 0 40 5 40 10 0 16 -86 12 -99 -4z"/>
<path d="M700 921 c0 -6 5 -13 10 -16 6 -3 10 1 10 9 0 9 -4 16 -10 16 -5 0
-10 -4 -10 -9z"/>
<path d="M705 880 c3 -5 8 -10 11 -10 2 0 4 5 4 10 0 6 -5 10 -11 10 -5 0 -7
-4 -4 -10z"/>
<path d="M720 844 c0 -8 5 -12 10 -9 6 4 8 11 5 16 -9 14 -15 11 -15 -7z"/>
<path d="M820 845 c-11 -13 -10 -14 5 -9 12 5 16 4 12 -3 -4 -6 0 -14 8 -17
13 -5 14 -2 4 17 -6 12 -13 23 -14 25 -1 1 -8 -4 -15 -13z"/>
<path d="M740 810 c0 -5 5 -10 10 -10 6 0 10 5 10 10 0 6 -4 10 -10 10 -5 0
-10 -4 -10 -10z"/>
<path d="M765 780 c3 -5 11 -10 16 -10 6 0 7 5 4 10 -3 6 -11 10 -16 10 -6 0
-7 -4 -4 -10z"/>
<path d="M855 760 c3 -5 8 -10 11 -10 2 0 4 5 4 10 0 6 -5 10 -11 10 -5 0 -7
-4 -4 -10z"/>
<path d="M783 720 c6 -22 15 -39 20 -37 5 1 8 6 8 10 -1 4 -1 14 -1 23 0 8 -5
12 -11 9 -6 -4 -9 0 -7 10 2 10 -2 20 -8 22 -8 3 -9 -7 -1 -37z"/>
<path d="M846 715 c-9 -26 -7 -32 5 -12 6 10 9 21 6 23 -2 3 -7 -2 -11 -11z"/>
<path d="M256 594 c-28 -27 -18 -42 37 -53 17 -4 32 -11 34 -18 6 -16 -24 -24
-52 -13 -13 5 -27 5 -30 1 -14 -24 76 -28 96 -5 18 22 0 48 -40 54 -39 6 -37
24 4 27 48 2 51 4 30 13 -32 14 -62 11 -79 -6z"/>
<path d="M380 540 c0 -27 5 -50 10 -50 6 0 10 9 10 20 0 16 7 20 30 20 23 0
30 -4 30 -20 0 -11 5 -20 10 -20 6 0 10 23 10 50 0 28 -4 50 -10 50 -5 0 -10
-9 -10 -20 0 -16 -7 -20 -30 -20 -23 0 -30 4 -30 20 0 11 -4 20 -10 20 -5 0
-10 -22 -10 -50z"/>
<path d="M530 546 c-25 -56 -25 -64 0 -41 11 10 18 21 15 24 -2 4 0 13 5 20 6
10 13 4 25 -23 14 -30 35 -49 35 -31 0 12 -45 95 -52 95 -4 0 -17 -20 -28 -44z"/>
<path d="M645 576 c-16 -12 -17 -16 -6 -29 7 -9 25 -17 39 -19 35 -4 25 -23
-10 -22 -16 1 -28 -2 -28 -7 0 -16 67 -10 81 7 11 14 10 18 -6 30 -10 8 -29
14 -42 14 -13 0 -23 5 -23 11 0 7 14 10 35 7 36 -4 47 5 19 16 -24 9 -38 7
-59 -8z"/>
<path d="M750 540 c0 -27 5 -50 10 -50 6 0 10 9 10 20 0 16 7 20 30 20 23 0
30 -4 30 -20 0 -11 5 -20 10 -20 6 0 10 23 10 50 0 28 -4 50 -10 50 -5 0 -10
-9 -10 -20 0 -16 -7 -20 -30 -20 -23 0 -30 4 -30 20 0 11 -4 20 -10 20 -5 0
-10 -22 -10 -50z"/>
<path d="M880 583 c0 -16 33 -93 40 -93 5 0 13 15 20 33 11 31 12 31 26 13 7
-11 14 -26 14 -33 0 -32 28 -8 42 37 18 56 10 67 -14 18 l-16 -33 -12 33 c-15
40 -28 41 -41 2 -6 -16 -15 -30 -19 -30 -5 0 -11 14 -15 30 -6 26 -25 43 -25
23z"/>
<path d="M1072 544 c-13 -26 -20 -49 -17 -53 7 -6 28 25 31 47 5 27 13 23 29
-12 14 -30 35 -48 35 -31 0 10 -44 95 -50 95 -3 0 -16 -21 -28 -46z"/>
<path d="M1170 581 c0 -5 10 -11 21 -14 18 -5 21 -12 17 -41 -3 -25 0 -36 9
-36 8 0 13 14 13 40 0 29 4 40 15 40 8 0 15 5 15 10 0 6 -20 10 -45 10 -25 0
-45 -4 -45 -9z"/>
</g>
</svg>
