<?xml version="1.0" standalone="no"?>
<!DOCTYPE svg PUBLIC "-//W3C//DTD SVG 20010904//EN"
 "http://www.w3.org/TR/2001/REC-SVG-20010904/DTD/svg10.dtd">
<svg version="1.0" xmlns="http://www.w3.org/2000/svg"
 width="1280.000000pt" height="282.000000pt" viewBox="0 0 1280.000000 282.000000"
 preserveAspectRatio="xMidYMid meet">

<g transform="translate(0.000000,282.000000) scale(0.100000,-0.100000)"
fill="#000000" stroke="none">
<path d="M1675 2803 c-46 -9 -173 -58 -215 -81 -49 -28 -150 -103 -150 -112 0
-3 44 -30 97 -62 l97 -56 33 29 c58 50 178 99 245 99 l28 0 0 -153 c0 -182 11
-233 79 -372 58 -117 143 -217 217 -255 48 -24 56 -25 287 -28 l237 -3 0 -394
0 -395 -252 -2 -253 -3 -3 -87 -3 -88 254 0 c287 0 331 7 384 62 61 63 63 78
62 396 -1 158 2 353 6 435 l8 147 -36 33 c-62 59 -128 71 -362 63 -236 -8
-279 0 -351 66 -91 84 -118 194 -108 436 5 113 3 168 -5 195 -15 45 -86 109
-139 125 -38 12 -116 14 -157 5z"/>
<path d="M1323 2495 c-16 -33 -18 -34 -66 -32 -69 3 -69 -16 -1 -43 54 -22 57
-23 70 -6 16 23 39 9 39 -24 0 -18 6 -26 22 -28 16 -2 29 7 49 38 30 45 24 63
-20 63 -23 0 -26 4 -26 33 0 30 -3 34 -25 34 -19 0 -29 -9 -42 -35z"/>
<path d="M1018 2451 c-40 -49 -118 -196 -118 -222 0 -8 98 -69 111 -69 3 0 9
46 12 103 3 60 15 130 27 170 12 38 20 71 18 72 -2 2 -25 -22 -50 -54z"/>
<path d="M1236 2296 c6 -43 6 -44 -39 -75 -35 -23 -44 -35 -40 -51 3 -11 7
-20 9 -20 2 0 28 12 59 27 41 20 55 33 55 48 0 12 3 24 6 27 11 12 46 -6 55
-28 5 -14 17 -24 28 -24 11 0 26 -3 35 -6 14 -5 16 3 16 54 0 68 -16 84 -56
57 -32 -21 -43 -19 -50 10 -5 21 -12 25 -45 25 l-39 0 6 -44z"/>
<path d="M12168 2223 l-158 -4 0 -24 c0 -24 2 -25 66 -25 l66 0 -4 -140 -3
-140 35 0 35 0 -3 140 -3 140 65 0 66 0 0 30 c0 17 -1 29 -2 28 -2 -1 -74 -4
-160 -5z"/>
<path d="M12385 2055 l0 -165 35 0 35 0 -3 112 c-3 132 -2 132 74 -16 53 -102
42 -105 119 34 27 49 53 90 58 90 5 0 7 -50 5 -110 l-3 -110 44 0 c37 0 42 2
31 15 -8 10 -11 57 -8 165 l3 150 -47 0 c-38 0 -48 -3 -48 -16 0 -22 -88 -184
-100 -184 -12 0 -101 180 -94 191 3 5 -18 9 -48 9 l-53 0 0 -165z"/>
<path d="M1300 2139 c0 -5 -4 -8 -9 -5 -4 3 -16 0 -25 -7 -15 -11 -16 -17 -5
-41 12 -25 11 -30 -6 -43 -64 -47 -65 -48 -55 -63 8 -13 14 -12 47 5 21 11 53
35 70 54 32 33 33 34 52 17 24 -22 91 -15 91 10 0 12 -25 70 -35 82 -2 2 -20
-4 -40 -14 -35 -16 -38 -16 -47 -1 -10 19 -38 23 -38 6z"/>
<path d="M850 2090 c-26 -26 -34 -62 -25 -118 8 -47 9 -112 3 -215 -3 -48 0
-57 30 -91 30 -34 32 -42 32 -107 0 -83 7 -100 71 -160 36 -33 49 -53 49 -73
0 -41 23 -78 82 -128 40 -35 57 -58 72 -99 11 -31 33 -68 55 -89 57 -55 71
-81 71 -130 0 -38 5 -50 41 -86 38 -38 42 -48 49 -112 8 -76 9 -79 53 -134 31
-38 33 -57 21 -134 -12 -84 48 -139 126 -115 76 23 95 121 38 187 -32 36 -33
41 -33 121 l0 84 -47 43 -47 43 1 65 c1 77 -11 103 -60 126 -42 20 -62 52 -62
103 0 70 -18 99 -76 125 -60 26 -72 43 -80 111 -5 51 -30 83 -64 83 -34 0 -60
47 -60 107 0 51 -3 56 -45 97 -48 47 -52 61 -34 131 10 39 9 50 -11 90 -18 37
-21 56 -16 96 3 27 9 71 12 98 6 44 4 52 -19 75 -33 33 -97 36 -127 6z m98
-42 c17 -17 15 -74 -4 -92 -46 -47 -107 22 -74 85 12 22 59 26 78 7z m0 -250
c13 -13 16 -47 6 -72 -4 -9 -18 -16 -34 -16 -29 0 -40 15 -40 54 0 26 17 46
40 46 9 0 21 -5 28 -12z m63 -238 c23 -13 26 -62 4 -80 -21 -17 -62 -4 -68 22
-7 24 16 68 34 68 6 0 19 -5 30 -10z m142 -231 c18 -25 11 -56 -14 -70 -28
-15 -59 6 -59 39 0 51 46 70 73 31z m141 -192 c39 -28 -1 -107 -41 -81 -32 20
-38 40 -20 68 19 29 35 32 61 13z m137 -226 c20 -16 22 -23 14 -47 -9 -24 -16
-29 -45 -29 -29 0 -36 5 -45 29 -8 24 -6 31 14 47 13 10 27 19 31 19 4 0 18
-9 31 -19z m89 -229 c46 -37 -9 -106 -59 -75 -26 16 -26 59 1 77 28 20 31 20
58 -2z m58 -238 c39 -27 23 -84 -23 -84 -12 0 -26 5 -33 12 -18 18 -15 65 6
77 23 14 24 14 50 -5z"/>
<path d="M1400 2003 c-8 -4 -20 -13 -27 -22 -9 -13 -14 -14 -24 -3 -18 17 -29
15 -29 -6 0 -11 -11 -24 -25 -30 -29 -13 -31 -24 -9 -57 12 -19 13 -28 4 -45
-6 -12 -9 -29 -5 -38 5 -14 11 -11 35 18 16 19 30 43 30 52 0 42 33 67 46 34
4 -12 13 -11 55 2 52 17 55 22 38 71 -9 26 -16 31 -42 30 -18 0 -39 -3 -47 -6z"/>
<path d="M185 1971 c-65 -16 -115 -54 -146 -111 -11 -19 -16 -116 -22 -420 -5
-217 -9 -416 -10 -441 -3 -62 16 -92 77 -126 l51 -28 245 -1 c154 0 258 -5
279 -12 97 -33 160 -110 187 -230 14 -63 16 -106 11 -242 -5 -109 -3 -179 4
-205 14 -51 81 -116 136 -133 135 -40 340 25 507 161 l28 23 -95 57 c-53 31
-99 57 -102 57 -4 0 -23 -14 -43 -31 -20 -18 -55 -40 -77 -50 -48 -21 -175
-52 -182 -45 -3 3 -9 88 -13 188 -6 151 -11 194 -29 248 -36 103 -104 211
-180 283 -98 93 -116 97 -383 97 -138 0 -218 4 -219 10 -1 6 -1 17 -1 25 0 8
0 182 1 385 l1 370 255 0 256 0 -3 88 -3 87 -250 2 c-137 0 -263 -2 -280 -6z"/>
<path d="M3480 1954 c-150 -26 -220 -54 -279 -114 -70 -71 -86 -111 -86 -215
0 -80 3 -95 27 -136 62 -105 140 -143 339 -164 336 -36 372 -48 377 -128 3
-39 -1 -50 -28 -80 -78 -89 -299 -100 -497 -25 -65 25 -133 85 -133 116 0 44
-17 20 -68 -95 -60 -135 -63 -147 -29 -132 20 9 35 5 86 -20 34 -18 105 -44
159 -59 85 -23 115 -27 242 -27 203 1 314 33 398 117 66 65 87 118 87 218 0
96 -19 143 -79 203 -65 65 -161 94 -411 122 -77 9 -158 21 -180 26 -78 21
-104 73 -70 139 45 86 257 111 437 52 78 -26 158 -79 173 -116 l13 -30 62 123
c33 68 59 125 56 128 -2 2 -13 0 -24 -6 -16 -9 -39 -4 -109 23 -49 19 -124 44
-168 55 -76 20 -242 34 -295 25z"/>
<path d="M1480 1883 c-8 -3 -21 -12 -28 -21 -9 -12 -15 -13 -24 -4 -20 20 -38
14 -38 -12 0 -13 -7 -27 -15 -30 -12 -4 -14 -14 -9 -41 5 -28 3 -39 -12 -49
-15 -12 -16 -16 -5 -30 19 -23 33 -20 65 13 22 23 27 36 22 56 -9 34 20 47 43
18 15 -18 19 -19 59 -5 23 7 42 17 42 20 0 4 -11 25 -23 47 -22 39 -45 50 -77
38z"/>
<path d="M11120 1678 c0 -79 4 -128 10 -128 6 0 10 7 10 15 0 27 39 35 179 35
l141 0 0 -330 0 -331 -26 -24 -27 -25 154 0 154 1 -27 20 -28 21 0 334 0 334
144 0 c144 0 145 0 165 -26 l21 -27 0 123 0 123 -23 -21 c-23 -22 -27 -22
-414 -22 l-391 0 -21 28 -20 27 -1 -127z"/>
<path d="M6773 1760 c-61 -11 -154 -51 -199 -85 -104 -80 -112 -265 -15 -362
52 -52 119 -71 323 -88 200 -17 246 -30 262 -77 15 -42 -6 -76 -62 -101 -72
-32 -230 -36 -341 -7 -106 27 -137 43 -161 82 l-19 31 -10 -24 c-5 -13 -25
-60 -44 -104 l-33 -80 40 -1 c23 -1 66 -10 96 -22 139 -52 335 -67 473 -36
173 39 256 124 257 262 0 72 -20 119 -72 169 -61 59 -122 75 -357 98 -178 17
-225 30 -243 70 -16 35 11 72 78 105 121 61 418 5 459 -88 5 -12 12 -22 15
-22 7 0 100 176 100 189 0 7 -8 7 -23 2 -17 -7 -40 -2 -90 20 -158 67 -310 91
-434 69z"/>
<path d="M1550 1743 c-8 -4 -20 -13 -26 -22 -10 -13 -14 -13 -28 -2 -13 11
-17 10 -22 -5 -4 -11 -16 -29 -27 -41 -18 -20 -18 -23 -3 -44 15 -21 14 -25
-5 -45 l-21 -22 23 -12 c20 -11 25 -9 50 21 20 24 26 41 22 58 -8 31 16 45 39
24 17 -15 21 -15 54 3 47 25 49 29 24 64 -21 29 -45 36 -80 23z"/>
<path d="M4230 1742 c0 -4 10 -12 23 -17 l22 -10 3 -390 2 -390 -27 -22 -28
-23 154 0 154 0 -27 25 -26 24 0 161 0 160 250 0 250 0 0 -160 0 -161 -26 -24
-27 -25 153 0 153 0 -27 25 -26 24 0 380 c0 332 2 382 16 395 8 9 20 16 25 16
5 0 9 5 9 10 0 6 -57 10 -150 10 -93 0 -150 -4 -150 -10 0 -5 4 -10 9 -10 5 0
17 -7 25 -16 13 -13 16 -42 16 -160 l0 -144 -247 2 -248 3 -3 138 c-3 135 -2
138 23 163 14 14 25 27 25 29 0 3 -67 5 -150 5 -82 0 -150 -3 -150 -8z"/>
<path d="M5690 1745 c0 -3 10 -15 21 -26 16 -16 20 -29 16 -53 -3 -17 -80
-184 -173 -371 -120 -244 -177 -349 -201 -372 l-34 -33 157 0 157 0 -27 21
c-33 26 -32 49 7 129 l32 65 202 2 203 1 35 -70 c19 -39 35 -79 35 -89 0 -9
-12 -27 -27 -38 l-28 -20 173 -1 172 0 -37 38 c-21 21 -59 79 -84 128 -26 49
-106 200 -178 337 -72 136 -133 258 -137 272 -4 18 1 31 20 50 14 14 26 28 26
30 0 3 -74 5 -165 5 -91 0 -165 -2 -165 -5z m229 -385 l70 -140 -144 0 -144 0
43 93 c69 148 90 187 97 187 4 0 39 -63 78 -140z"/>
<path d="M7480 1745 c0 -2 11 -15 25 -29 l25 -25 0 -376 0 -376 -26 -24 -27
-25 154 0 154 1 -27 20 -28 21 0 164 0 164 250 0 250 0 -1 -152 c0 -84 -4
-161 -8 -172 -4 -10 -18 -24 -32 -32 -21 -12 -5 -13 130 -14 l155 0 -22 20
c-12 12 -22 28 -22 38 0 9 0 183 -1 387 l0 370 28 22 28 23 -159 0 -158 0 31
-29 32 -30 -3 -138 -3 -138 -247 -3 -248 -2 0 140 c0 141 8 180 35 180 8 0 15
5 15 10 0 6 -57 10 -150 10 -82 0 -150 -2 -150 -5z"/>
<path d="M8550 1741 c0 -5 9 -12 20 -16 36 -11 56 -57 215 -475 24 -63 57
-148 74 -189 42 -100 41 -134 -4 -159 -16 -9 16 -11 144 -12 l164 0 -27 21
c-14 11 -26 31 -26 43 0 12 32 101 71 197 38 96 84 209 100 252 17 42 34 77
38 77 4 0 33 -69 65 -152 33 -84 76 -197 97 -252 46 -116 48 -138 13 -165
l-27 -21 168 0 168 0 -27 21 c-17 13 -26 30 -26 48 0 15 36 117 79 226 43 110
99 253 124 317 62 157 73 178 115 215 l37 33 -175 0 -175 -1 28 -20 c33 -25
36 -65 8 -135 -11 -27 -48 -122 -82 -211 -34 -90 -66 -163 -69 -163 -4 0 -28
55 -54 123 -128 331 -130 343 -96 377 11 11 20 22 20 25 0 3 -87 5 -192 5
l-193 0 33 -27 c29 -22 33 -30 28 -57 -10 -49 -170 -438 -181 -438 -10 0 -96
206 -155 371 -28 78 -29 86 -15 107 9 13 20 24 25 24 6 0 10 5 10 10 0 6 -60
10 -160 10 -92 0 -160 -4 -160 -9z"/>
<path d="M10380 1742 c0 -5 9 -17 20 -27 11 -10 20 -28 20 -41 0 -13 -81 -185
-180 -384 -153 -306 -185 -363 -212 -380 l-33 -20 165 0 c152 1 163 2 138 16
-38 20 -37 56 4 139 l32 65 200 -2 200 -3 33 -57 c18 -31 36 -70 39 -87 6 -26
2 -33 -27 -50 l-34 -21 185 0 c184 0 185 0 155 18 -39 24 -52 40 -90 115 -17
34 -98 186 -178 338 -151 284 -168 329 -132 359 8 7 15 16 15 21 0 5 -72 9
-160 9 -88 0 -160 -4 -160 -8z m223 -377 c37 -74 67 -137 67 -140 0 -3 -63 -5
-140 -5 -77 0 -140 2 -140 5 0 10 135 275 140 275 3 0 36 -61 73 -135z"/>
<path d="M1625 1599 c-19 -17 -35 -37 -35 -45 0 -17 -22 -18 -38 -2 -10 10
-15 10 -22 -2 -13 -20 -13 -40 0 -40 6 0 10 -9 10 -20 0 -11 -7 -20 -15 -20
-22 0 -18 -13 10 -40 18 -17 25 -19 25 -9 0 8 14 36 30 62 27 43 32 47 51 36
18 -9 26 -6 55 22 l34 33 -27 28 c-15 15 -30 28 -35 28 -4 0 -23 -14 -43 -31z"/>
<path d="M1698 1482 c-24 -18 -35 -33 -32 -44 7 -24 -14 -32 -36 -13 -17 15
-19 15 -28 -2 -8 -13 -7 -22 5 -35 14 -16 14 -19 -6 -35 l-22 -18 24 -23 25
-24 25 37 c14 21 23 44 20 51 -7 19 26 30 48 16 15 -10 24 -7 54 20 l36 31
-32 33 c-18 19 -35 34 -38 33 -4 0 -23 -13 -43 -27z"/>
<path d="M1783 1360 c-18 -16 -33 -36 -33 -44 0 -22 -16 -28 -30 -11 -7 8 -16
15 -21 15 -14 0 -21 -41 -9 -55 10 -12 7 -17 -14 -25 -30 -11 -33 -22 -11 -40
13 -11 20 -10 42 6 15 11 31 29 37 40 16 28 27 33 46 22 20 -13 69 -3 76 16 6
15 -31 106 -43 106 -4 0 -23 -14 -40 -30z"/>
<path d="M1863 1228 c-18 -6 -33 -17 -33 -24 0 -24 -23 -27 -41 -6 -23 29 -51
19 -43 -14 6 -21 3 -24 -25 -24 -24 0 -31 -4 -31 -19 0 -32 18 -34 81 -11 55
21 61 21 78 6 9 -9 25 -16 34 -16 17 0 22 12 32 78 7 46 5 48 -52 30z"/>
<path d="M1823 1093 c-8 -3 -11 -14 -7 -29 7 -29 -19 -43 -47 -26 -26 17 -29
15 -29 -14 0 -26 1 -26 68 -22 67 3 67 3 70 -24 3 -25 7 -28 43 -28 27 0 39 4
39 14 0 8 8 27 17 44 9 16 14 36 10 45 -8 21 -60 23 -77 2 -7 -8 -21 -15 -31
-15 -14 0 -19 7 -19 30 0 29 -9 35 -37 23z"/>
<path d="M1859 910 c-11 -31 -39 -42 -39 -15 0 9 -9 15 -21 15 -15 0 -20 -5
-17 -22 2 -17 12 -24 43 -30 85 -17 85 -17 85 -47 0 -28 15 -41 45 -41 17 0
65 68 65 92 0 12 -12 19 -47 24 -32 5 -48 3 -51 -5 -8 -24 -22 -9 -22 24 0 45
-27 48 -41 5z"/>
<path d="M1806 764 c-5 -13 45 -54 66 -54 4 0 13 -12 20 -27 16 -34 25 -35 63
-5 l30 24 -24 19 c-13 11 -31 17 -39 14 -8 -3 -24 0 -36 8 -48 30 -74 37 -80
21z"/>
<path d="M1810 567 c0 -61 -7 -121 -20 -172 -11 -43 -20 -80 -20 -82 0 -2 18
17 40 43 36 40 130 209 130 231 0 8 -111 73 -124 73 -3 0 -6 -42 -6 -93z"/>
<path d="M6527 568 c-26 -20 -37 -69 -22 -104 11 -26 9 -32 -17 -62 -21 -25
-28 -43 -28 -75 1 -45 11 -63 50 -90 34 -24 69 -21 112 8 l37 25 33 -20 c44
-27 58 -25 58 6 0 14 -4 23 -10 19 -5 -3 -18 3 -29 14 -17 17 -19 25 -9 51 6
17 19 37 29 43 12 8 19 23 19 45 0 30 -2 32 -20 22 -12 -6 -28 -27 -37 -46
-20 -41 -26 -42 -41 -9 -10 21 -9 32 3 55 22 42 18 77 -10 105 -27 28 -89 34
-118 13z m84 -38 c36 -20 16 -90 -25 -90 -40 0 -63 46 -40 79 17 23 35 26 65
11z m12 -161 c33 -45 1 -99 -58 -99 -28 0 -37 6 -50 30 -19 38 -19 42 6 74 28
35 73 33 102 -5z"/>
<path d="M6100 480 c0 -24 3 -25 45 -22 l45 4 0 -116 0 -116 28 0 27 0 -3 116
-3 116 45 -4 c43 -3 46 -2 46 22 l0 25 -115 0 -115 0 0 -25z"/>
<path d="M6926 485 c-18 -17 -26 -34 -26 -57 0 -52 23 -76 78 -83 66 -9 92
-21 92 -44 0 -30 -53 -41 -110 -25 -25 8 -46 14 -46 14 -1 0 -4 -9 -7 -19 -4
-16 4 -23 34 -35 92 -37 179 0 179 77 0 46 -31 70 -106 82 -54 9 -70 15 -73
30 -8 43 59 58 121 26 31 -15 38 -16 42 -4 10 25 7 29 -29 46 -54 26 -116 22
-149 -8z"/>
<path d="M7797 492 c-32 -20 -67 -86 -67 -125 0 -38 23 -88 53 -115 35 -33 91
-38 152 -15 l50 19 -4 54 c-1 30 -4 56 -5 57 -1 1 -20 3 -41 4 -22 1 -46 7
-52 12 -10 7 -13 -1 -12 -34 0 -24 3 -38 6 -31 2 6 18 12 34 12 27 0 30 -3 27
-27 -4 -33 -42 -46 -93 -32 -45 13 -65 43 -65 97 0 77 66 121 135 90 14 -6 25
-15 25 -20 0 -16 17 1 23 22 11 44 -109 68 -166 32z"/>
<path d="M8216 489 c-81 -64 -73 -204 15 -251 42 -22 80 -23 122 -2 52 26 58
34 46 55 -10 19 -10 19 -37 0 -72 -52 -152 -14 -152 72 0 55 28 94 74 103 37
6 96 -17 96 -39 1 -12 30 21 30 33 0 4 -17 16 -39 28 -51 29 -119 29 -155 1z"/>
<path d="M9158 492 c-83 -51 -76 -212 11 -257 41 -20 76 -19 128 6 44 21 47
26 37 53 -5 14 -9 13 -31 -4 -28 -22 -83 -26 -115 -9 -27 15 -49 71 -42 109 8
36 56 80 88 80 12 0 39 -9 59 -19 34 -17 38 -17 46 -3 7 13 1 21 -27 39 -45
27 -115 30 -154 5z"/>
<path d="M10093 503 l-103 -4 0 -134 0 -134 110 -3 110 -3 0 25 c0 25 -1 25
-82 25 l-83 0 0 35 0 35 53 0 c49 0 52 2 52 25 0 23 -3 25 -52 25 -52 0 -53 0
-53 30 l0 30 78 0 77 0 0 28 c0 15 -1 26 -2 25 -2 -1 -49 -4 -105 -5z"/>
<path d="M4535 365 l0 -135 25 0 25 0 0 135 0 135 -25 0 -25 0 0 -135z"/>
<path d="M4660 365 c0 -133 0 -135 23 -135 21 0 22 3 19 85 -2 49 1 85 6 85 5
0 24 -34 42 -75 18 -41 36 -75 39 -75 4 0 24 34 44 76 47 94 61 89 55 -20 -3
-76 -3 -76 22 -76 l25 0 0 135 0 135 -36 0 c-24 0 -36 -5 -35 -12 2 -20 -57
-148 -69 -148 -10 0 -65 125 -65 148 0 7 -15 12 -35 12 l-35 0 0 -135z"/>
<path d="M5005 365 l0 -135 25 0 c23 0 25 3 25 52 l0 53 68 5 c57 4 72 9 88
29 22 26 24 62 8 94 -18 34 -28 37 -124 37 l-90 0 0 -135z m173 63 c4 -34 -24
-50 -81 -46 -35 3 -43 7 -45 26 -7 46 3 53 65 50 55 -3 58 -5 61 -30z"/>
<path d="M5280 366 l0 -135 100 -3 100 -3 0 25 c0 25 -2 25 -72 25 l-73 0 -3
113 c-3 112 -3 112 -27 112 l-25 0 0 -134z"/>
<path d="M5600 483 c-1 -10 -22 -71 -49 -135 l-48 -118 26 0 c20 0 27 5 28 22
3 29 15 35 73 32 58 -2 70 -9 70 -35 0 -15 7 -19 34 -19 34 0 34 0 21 28 -35
71 -95 214 -95 227 0 23 -60 20 -60 -2z m48 -90 c5 -16 13 -36 17 -45 6 -15 1
-18 -34 -18 -46 0 -47 3 -26 54 18 43 30 45 43 9z"/>
<path d="M5815 365 l0 -135 25 0 25 0 -3 90 c-2 49 0 90 5 89 11 -1 127 -145
131 -164 2 -9 14 -15 30 -15 l27 0 0 135 c0 133 0 135 -22 135 -21 0 -22 -5
-25 -87 l-3 -87 -62 77 c-35 42 -63 81 -63 87 0 5 -15 10 -32 10 l-33 0 0
-135z"/>
<path d="M7172 385 c3 -103 5 -117 26 -137 33 -33 131 -33 164 0 21 20 24 35
28 137 5 114 5 115 -17 115 -22 0 -23 -3 -23 -99 0 -115 -9 -131 -70 -131 -53
0 -60 17 -60 134 l0 96 -26 0 -26 0 4 -115z"/>
<path d="M7465 365 l0 -135 25 0 c24 0 25 2 22 55 l-4 55 31 0 c24 0 36 -8 56
-37 14 -21 25 -46 25 -55 0 -14 8 -18 40 -18 l40 0 -35 49 -35 49 30 30 c34
35 40 83 14 120 -14 20 -23 22 -112 22 l-97 0 0 -135z m173 63 c4 -34 -24 -50
-81 -46 -41 3 -42 4 -45 41 l-3 38 63 -3 c60 -3 63 -4 66 -30z"/>
<path d="M8050 365 l0 -135 28 0 27 0 0 135 0 135 -27 0 -28 0 0 -135z"/>
<path d="M8539 452 c-9 -26 -32 -86 -52 -134 l-36 -88 29 0 c24 0 29 5 32 28
3 26 5 27 56 26 67 -2 82 -9 82 -34 0 -16 6 -20 35 -20 34 0 35 1 21 23 -21
33 -96 214 -96 231 0 11 -9 16 -27 16 -24 0 -30 -7 -44 -48z m56 -62 c24 -47
20 -60 -20 -60 -40 0 -39 -1 -23 51 13 47 23 49 43 9z"/>
<path d="M8765 365 l0 -135 98 0 c94 0 97 1 97 23 0 21 -4 22 -73 22 l-72 0 0
113 0 112 -25 0 -25 0 0 -135z"/>
<path d="M9483 483 c-1 -10 -22 -70 -47 -133 -25 -63 -46 -116 -46 -117 0 -2
11 -3 24 -3 18 0 25 7 29 28 5 26 7 27 68 26 46 -1 64 -5 71 -18 5 -9 6 -21 3
-26 -4 -6 8 -10 29 -10 l34 0 -53 126 c-30 70 -52 131 -49 135 3 5 -10 9 -28
9 -25 0 -34 -5 -35 -17z m52 -99 c21 -51 20 -54 -20 -54 -38 0 -42 8 -24 59
14 40 25 39 44 -5z"/>
<path d="M9700 365 l0 -135 28 0 c27 0 27 1 24 55 l-4 55 31 0 c26 0 36 -7 61
-46 16 -26 27 -51 24 -55 -3 -5 14 -9 38 -9 24 0 38 4 33 8 -6 4 -23 26 -38
50 l-28 43 31 29 c37 34 41 89 10 120 -17 17 -33 20 -115 20 l-95 0 0 -135z
m164 89 c23 -9 20 -51 -4 -64 -12 -6 -40 -10 -63 -8 -41 3 -42 4 -45 41 l-3
37 50 0 c27 0 56 -3 65 -6z"/>
</g>
</svg>
